<mxfile host="app.diagrams.net" modified="2024-03-21T04:16:48.017Z" agent="Mozilla/5.0 (Windows NT 10.0; Win64; x64) AppleWebKit/537.36 (KHTML, like Gecko) Chrome/122.0.0.0 Safari/537.36" etag="2bLISfEL1d4Mo5acU-P9" version="24.0.6" type="device">
  <diagram name="페이지-1" id="Xjc7gmurVqCizKoF0GQg">
    <mxGraphModel dx="2074" dy="1188" grid="0" gridSize="10" guides="1" tooltips="1" connect="1" arrows="1" fold="1" page="0" pageScale="1" pageWidth="827" pageHeight="1169" math="0" shadow="0">
      <root>
        <mxCell id="0" />
        <mxCell id="1" parent="0" />
        <mxCell id="9f4RHc_0FLHcxHfcnAiE-1" value="주문원장" style="rounded=0;whiteSpace=wrap;html=1;" vertex="1" parent="1">
          <mxGeometry x="74" y="157" width="120" height="60" as="geometry" />
        </mxCell>
        <mxCell id="9f4RHc_0FLHcxHfcnAiE-2" value="주문내역" style="rounded=0;whiteSpace=wrap;html=1;" vertex="1" parent="1">
          <mxGeometry x="121.5" y="-125" width="120" height="60" as="geometry" />
        </mxCell>
        <mxCell id="9f4RHc_0FLHcxHfcnAiE-3" value="고객정보" style="rounded=0;whiteSpace=wrap;html=1;" vertex="1" parent="1">
          <mxGeometry x="-289" y="23" width="120" height="60" as="geometry" />
        </mxCell>
        <mxCell id="9f4RHc_0FLHcxHfcnAiE-4" value="상품정보" style="rounded=0;whiteSpace=wrap;html=1;" vertex="1" parent="1">
          <mxGeometry x="511" y="23" width="120" height="60" as="geometry" />
        </mxCell>
        <mxCell id="9f4RHc_0FLHcxHfcnAiE-5" value="주문번호" style="ellipse;whiteSpace=wrap;html=1;" vertex="1" parent="1">
          <mxGeometry x="-81" y="283" width="94" height="60" as="geometry" />
        </mxCell>
        <mxCell id="9f4RHc_0FLHcxHfcnAiE-6" value="거래일자" style="ellipse;whiteSpace=wrap;html=1;" vertex="1" parent="1">
          <mxGeometry x="34" y="283" width="94" height="60" as="geometry" />
        </mxCell>
        <mxCell id="9f4RHc_0FLHcxHfcnAiE-7" value="상품코드" style="ellipse;whiteSpace=wrap;html=1;" vertex="1" parent="1">
          <mxGeometry x="149" y="283" width="94" height="60" as="geometry" />
        </mxCell>
        <mxCell id="9f4RHc_0FLHcxHfcnAiE-8" value="고객코드" style="ellipse;whiteSpace=wrap;html=1;" vertex="1" parent="1">
          <mxGeometry x="264" y="283" width="94" height="60" as="geometry" />
        </mxCell>
        <mxCell id="9f4RHc_0FLHcxHfcnAiE-9" value="주문번호" style="ellipse;whiteSpace=wrap;html=1;" vertex="1" parent="1">
          <mxGeometry x="110" y="-261" width="94" height="60" as="geometry" />
        </mxCell>
        <mxCell id="9f4RHc_0FLHcxHfcnAiE-10" value="거래일자" style="ellipse;whiteSpace=wrap;html=1;" vertex="1" parent="1">
          <mxGeometry x="215" y="-261" width="94" height="60" as="geometry" />
        </mxCell>
        <mxCell id="9f4RHc_0FLHcxHfcnAiE-13" value="고객코드" style="ellipse;whiteSpace=wrap;html=1;" vertex="1" parent="1">
          <mxGeometry x="-390" y="141" width="94" height="60" as="geometry" />
        </mxCell>
        <mxCell id="9f4RHc_0FLHcxHfcnAiE-14" value="고객명" style="ellipse;whiteSpace=wrap;html=1;" vertex="1" parent="1">
          <mxGeometry x="-276" y="141" width="94" height="60" as="geometry" />
        </mxCell>
        <mxCell id="9f4RHc_0FLHcxHfcnAiE-15" value="연락처" style="ellipse;whiteSpace=wrap;html=1;" vertex="1" parent="1">
          <mxGeometry x="-162" y="143" width="94" height="60" as="geometry" />
        </mxCell>
        <mxCell id="9f4RHc_0FLHcxHfcnAiE-16" value="품목" style="ellipse;whiteSpace=wrap;html=1;" vertex="1" parent="1">
          <mxGeometry x="351.5" y="141" width="94" height="60" as="geometry" />
        </mxCell>
        <mxCell id="9f4RHc_0FLHcxHfcnAiE-17" value="상품명" style="ellipse;whiteSpace=wrap;html=1;" vertex="1" parent="1">
          <mxGeometry x="466.5" y="141" width="94" height="60" as="geometry" />
        </mxCell>
        <mxCell id="9f4RHc_0FLHcxHfcnAiE-18" value="상품코드" style="ellipse;whiteSpace=wrap;html=1;" vertex="1" parent="1">
          <mxGeometry x="581.5" y="141" width="94" height="60" as="geometry" />
        </mxCell>
        <mxCell id="9f4RHc_0FLHcxHfcnAiE-19" value="가격" style="ellipse;whiteSpace=wrap;html=1;" vertex="1" parent="1">
          <mxGeometry x="696.5" y="141" width="94" height="60" as="geometry" />
        </mxCell>
        <mxCell id="9f4RHc_0FLHcxHfcnAiE-20" value="" style="endArrow=classic;html=1;rounded=0;fontSize=12;startSize=8;endSize=8;entryX=0.5;entryY=0;entryDx=0;entryDy=0;entryPerimeter=0;" edge="1" parent="1" target="9f4RHc_0FLHcxHfcnAiE-5">
          <mxGeometry width="50" height="50" relative="1" as="geometry">
            <mxPoint x="135" y="219" as="sourcePoint" />
            <mxPoint x="-30" y="283" as="targetPoint" />
          </mxGeometry>
        </mxCell>
        <mxCell id="9f4RHc_0FLHcxHfcnAiE-21" value="" style="endArrow=classic;html=1;rounded=0;fontSize=12;startSize=8;endSize=8;curved=1;entryX=0.5;entryY=0;entryDx=0;entryDy=0;" edge="1" parent="1" target="9f4RHc_0FLHcxHfcnAiE-6">
          <mxGeometry width="50" height="50" relative="1" as="geometry">
            <mxPoint x="136" y="219" as="sourcePoint" />
            <mxPoint x="245" y="171" as="targetPoint" />
          </mxGeometry>
        </mxCell>
        <mxCell id="9f4RHc_0FLHcxHfcnAiE-24" value="" style="endArrow=classic;html=1;rounded=0;fontSize=12;startSize=8;endSize=8;curved=1;entryX=0.5;entryY=0;entryDx=0;entryDy=0;" edge="1" parent="1" target="9f4RHc_0FLHcxHfcnAiE-7">
          <mxGeometry width="50" height="50" relative="1" as="geometry">
            <mxPoint x="137" y="219" as="sourcePoint" />
            <mxPoint x="237" y="181" as="targetPoint" />
          </mxGeometry>
        </mxCell>
        <mxCell id="9f4RHc_0FLHcxHfcnAiE-25" value="" style="endArrow=classic;html=1;rounded=0;fontSize=12;startSize=8;endSize=8;curved=1;entryX=0.5;entryY=0;entryDx=0;entryDy=0;exitX=0.5;exitY=1;exitDx=0;exitDy=0;" edge="1" parent="1" source="9f4RHc_0FLHcxHfcnAiE-1" target="9f4RHc_0FLHcxHfcnAiE-8">
          <mxGeometry width="50" height="50" relative="1" as="geometry">
            <mxPoint x="99" y="414" as="sourcePoint" />
            <mxPoint x="262" y="189" as="targetPoint" />
          </mxGeometry>
        </mxCell>
        <mxCell id="9f4RHc_0FLHcxHfcnAiE-26" value="" style="endArrow=classic;html=1;rounded=0;fontSize=12;startSize=8;endSize=8;curved=1;entryX=0.5;entryY=1;entryDx=0;entryDy=0;" edge="1" parent="1" target="9f4RHc_0FLHcxHfcnAiE-9">
          <mxGeometry width="50" height="50" relative="1" as="geometry">
            <mxPoint x="181" y="-125" as="sourcePoint" />
            <mxPoint x="181" y="-203" as="targetPoint" />
          </mxGeometry>
        </mxCell>
        <mxCell id="9f4RHc_0FLHcxHfcnAiE-29" value="" style="endArrow=classic;html=1;rounded=0;fontSize=12;startSize=8;endSize=8;curved=1;exitX=0.5;exitY=0;exitDx=0;exitDy=0;entryX=0.415;entryY=1;entryDx=0;entryDy=0;entryPerimeter=0;" edge="1" parent="1" source="9f4RHc_0FLHcxHfcnAiE-2" target="9f4RHc_0FLHcxHfcnAiE-10">
          <mxGeometry width="50" height="50" relative="1" as="geometry">
            <mxPoint x="366" y="-300" as="sourcePoint" />
            <mxPoint x="311" y="-258" as="targetPoint" />
          </mxGeometry>
        </mxCell>
        <mxCell id="9f4RHc_0FLHcxHfcnAiE-30" value="" style="endArrow=classic;html=1;rounded=0;fontSize=12;startSize=8;endSize=8;curved=1;entryX=0.521;entryY=0;entryDx=0;entryDy=0;entryPerimeter=0;exitX=0.5;exitY=1;exitDx=0;exitDy=0;" edge="1" parent="1" source="9f4RHc_0FLHcxHfcnAiE-3" target="9f4RHc_0FLHcxHfcnAiE-15">
          <mxGeometry width="50" height="50" relative="1" as="geometry">
            <mxPoint x="-175" y="112" as="sourcePoint" />
            <mxPoint x="-125" y="62" as="targetPoint" />
          </mxGeometry>
        </mxCell>
        <mxCell id="9f4RHc_0FLHcxHfcnAiE-31" value="" style="endArrow=classic;html=1;rounded=0;fontSize=12;startSize=8;endSize=8;curved=1;entryX=0.5;entryY=0;entryDx=0;entryDy=0;entryPerimeter=0;" edge="1" parent="1" target="9f4RHc_0FLHcxHfcnAiE-13">
          <mxGeometry width="50" height="50" relative="1" as="geometry">
            <mxPoint x="-228" y="85" as="sourcePoint" />
            <mxPoint x="-302" y="46" as="targetPoint" />
          </mxGeometry>
        </mxCell>
        <mxCell id="9f4RHc_0FLHcxHfcnAiE-32" value="" style="endArrow=classic;html=1;rounded=0;fontSize=12;startSize=8;endSize=8;curved=1;" edge="1" parent="1">
          <mxGeometry width="50" height="50" relative="1" as="geometry">
            <mxPoint x="-228" y="86" as="sourcePoint" />
            <mxPoint x="-228" y="141" as="targetPoint" />
          </mxGeometry>
        </mxCell>
        <mxCell id="9f4RHc_0FLHcxHfcnAiE-34" value="" style="endArrow=classic;html=1;rounded=0;fontSize=12;startSize=8;endSize=8;curved=1;entryX=0.5;entryY=0;entryDx=0;entryDy=0;exitX=0.5;exitY=1;exitDx=0;exitDy=0;" edge="1" parent="1" source="9f4RHc_0FLHcxHfcnAiE-4" target="9f4RHc_0FLHcxHfcnAiE-16">
          <mxGeometry width="50" height="50" relative="1" as="geometry">
            <mxPoint x="379" y="-75" as="sourcePoint" />
            <mxPoint x="429" y="-125" as="targetPoint" />
          </mxGeometry>
        </mxCell>
        <mxCell id="9f4RHc_0FLHcxHfcnAiE-35" value="" style="endArrow=classic;html=1;rounded=0;fontSize=12;startSize=8;endSize=8;curved=1;entryX=0.5;entryY=0;entryDx=0;entryDy=0;" edge="1" parent="1" target="9f4RHc_0FLHcxHfcnAiE-19">
          <mxGeometry width="50" height="50" relative="1" as="geometry">
            <mxPoint x="569" y="84" as="sourcePoint" />
            <mxPoint x="717" y="18" as="targetPoint" />
          </mxGeometry>
        </mxCell>
        <mxCell id="9f4RHc_0FLHcxHfcnAiE-36" value="" style="endArrow=classic;html=1;rounded=0;fontSize=12;startSize=8;endSize=8;curved=1;entryX=0.5;entryY=0;entryDx=0;entryDy=0;" edge="1" parent="1" target="9f4RHc_0FLHcxHfcnAiE-18">
          <mxGeometry width="50" height="50" relative="1" as="geometry">
            <mxPoint x="569" y="84" as="sourcePoint" />
            <mxPoint x="754" y="151" as="targetPoint" />
          </mxGeometry>
        </mxCell>
        <mxCell id="9f4RHc_0FLHcxHfcnAiE-37" value="" style="endArrow=classic;html=1;rounded=0;fontSize=12;startSize=8;endSize=8;curved=1;entryX=0.5;entryY=0;entryDx=0;entryDy=0;" edge="1" parent="1">
          <mxGeometry width="50" height="50" relative="1" as="geometry">
            <mxPoint x="569" y="83" as="sourcePoint" />
            <mxPoint x="511" y="140" as="targetPoint" />
          </mxGeometry>
        </mxCell>
        <mxCell id="6VdZSVoj_4P6BIpE-wUS-3" value="" style="edgeStyle=entityRelationEdgeStyle;fontSize=12;html=1;endArrow=ERmany;startArrow=ERmany;rounded=0;startSize=8;endSize=8;curved=1;exitX=1.008;exitY=0.4;exitDx=0;exitDy=0;exitPerimeter=0;" edge="1" parent="1" source="9f4RHc_0FLHcxHfcnAiE-3">
          <mxGeometry width="100" height="100" relative="1" as="geometry">
            <mxPoint x="21.5" y="8" as="sourcePoint" />
            <mxPoint x="121.5" y="-92" as="targetPoint" />
          </mxGeometry>
        </mxCell>
        <mxCell id="6VdZSVoj_4P6BIpE-wUS-4" value="" style="edgeStyle=entityRelationEdgeStyle;fontSize=12;html=1;endArrow=ERmany;startArrow=ERmany;rounded=0;startSize=8;endSize=8;curved=1;entryX=0;entryY=0.5;entryDx=0;entryDy=0;" edge="1" parent="1" source="9f4RHc_0FLHcxHfcnAiE-2" target="9f4RHc_0FLHcxHfcnAiE-4">
          <mxGeometry width="100" height="100" relative="1" as="geometry">
            <mxPoint x="255.25" y="-70" as="sourcePoint" />
            <mxPoint x="544.75" y="-209" as="targetPoint" />
          </mxGeometry>
        </mxCell>
      </root>
    </mxGraphModel>
  </diagram>
</mxfile>
